# xmcd
#
# Track frame offsets: 
#        150
#        11119
#        20382
#        32139
#        42152
#        51265
#        60547
#        74572
#        83122
#        93060
#        103785
#        112317
#        121730
#        134405
#        146818
#        158640
#        167650
#        179172
#        189551
#        197933
#        213133
#        226183
#        237433
#        243283
#
# Disc length: 3395 seconds
#
# Revision: 0
# Processed by: cddbd v1.5.2PL0 Copyright (c) Steve Scherf et al.
# Submitted via: ExactAudioCopy v0.99pb5
#
DISCID=560d4118
DTITLE=Larry Williams - Here's Larry Williams: The Specialty Rock'n'Ro
DTITLE=ll Recordings
DYEAR=2010
DGENRE=R&B
TTITLE0=Short Fat Fannie
TTITLE1=Make a Little Love
TTITLE2=Hootchy-Koo
TTITLE3=Lawdy Miss Clawdy
TTITLE4=Peaches and Cream
TTITLE5=Give Me Love
TTITLE6=Bony Maronie
TTITLE7=Little School Girl
TTITLE8=Dizzy Miss Lizzy
TTITLE9=Teardrops
TTITLE10=You Bug Me, Baby
TTITLE11=Ting-A-Ling 
TTITLE12=Just Because
TTITLE13=Slow Down
TTITLE14=Let Me Tell You Baby
TTITLE15=The Dummy
TTITLE16=High School Dance
TTITLE17=Bad Boy
TTITLE18=She Said, Yeah
TTITLE19=Slow Down (Alternate Take)
TTITLE20=Short Fat Fannie (Alternate Take)
TTITLE21=Steal A Little Kiss
TTITLE22=You Bug Me, Baby (Alternate Take)
TTITLE23=I Can't Stop Loving You
EXTD=
EXTT0=
EXTT1=
EXTT2=
EXTT3=
EXTT4=
EXTT5=
EXTT6=
EXTT7=
EXTT8=
EXTT9=
EXTT10=
EXTT11=
EXTT12=
EXTT13=
EXTT14=
EXTT15=
EXTT16=
EXTT17=
EXTT18=
EXTT19=
EXTT20=
EXTT21=
EXTT22=
EXTT23=
PLAYORDER=
